{
	"asset":{
		"generator":"Khronos glTF Blender I/O v5.0.21",
		"version":"2.0"
	},
	"scene":0,
	"scenes":[
		{
			"name":"Scene",
			"nodes":[
				0,
				1
			]
		}
	],
	"nodes":[
		{
			"mesh":0,
			"name":"Bath"
		},
		{
			"mesh":1,
			"name":"Bath_col",
			"scale":[
				3.5298800468444824,
				1.9496099948883057,
				1.9520399570465088
			],
			"translation":[
				0,
				2,
				0
			]
		}
	],
	"materials":[
		{
			"doubleSided":true,
			"name":"Bathtub",
			"pbrMetallicRoughness":{
				"baseColorFactor":[
					0.6353368163108826,
					0.6353368163108826,
					0.6353368163108826,
					1
				],
				"metallicFactor":0,
				"roughnessFactor":0.5
			}
		},
		{
			"doubleSided":true,
			"name":"Drain",
			"pbrMetallicRoughness":{
				"baseColorFactor":[
					0.08696522563695908,
					0.08696522563695908,
					0.08696522563695908,
					1
				],
				"metallicFactor":0,
				"roughnessFactor":0.5
			}
		},
		{
			"doubleSided":true,
			"name":"Tap",
			"pbrMetallicRoughness":{
				"baseColorFactor":[
					0.2600274980068207,
					0.2600274980068207,
					0.2600274980068207,
					1
				],
				"metallicFactor":0,
				"roughnessFactor":0.5
			}
		}
	],
	"meshes":[
		{
			"name":"Bath",
			"primitives":[
				{
					"attributes":{
						"POSITION":0,
						"NORMAL":1,
						"TEXCOORD_0":2
					},
					"indices":3,
					"material":0
				},
				{
					"attributes":{
						"POSITION":4,
						"NORMAL":5,
						"TEXCOORD_0":6
					},
					"indices":7,
					"material":1
				},
				{
					"attributes":{
						"POSITION":8,
						"NORMAL":9,
						"TEXCOORD_0":10
					},
					"indices":11,
					"material":2
				}
			]
		},
		{
			"name":"Bath_col",
			"primitives":[
				{
					"attributes":{
						"POSITION":12,
						"NORMAL":13,
						"TEXCOORD_0":14
					},
					"indices":15
				}
			]
		}
	],
	"accessors":[
		{
			"bufferView":0,
			"componentType":5126,
			"count":232,
			"max":[
				3.5298805236816406,
				3.1827027797698975,
				1.952040672302246
			],
			"min":[
				-3.5298805236816406,
				0.0006508827209472656,
				-1.952040672302246
			],
			"type":"VEC3"
		},
		{
			"bufferView":1,
			"componentType":5126,
			"count":232,
			"type":"VEC3"
		},
		{
			"bufferView":2,
			"componentType":5126,
			"count":232,
			"type":"VEC2"
		},
		{
			"bufferView":3,
			"componentType":5123,
			"count":348,
			"type":"SCALAR"
		},
		{
			"bufferView":4,
			"componentType":5126,
			"count":202,
			"max":[
				-1.7642779350280762,
				0.7749438285827637,
				0.23885571956634521
			],
			"min":[
				-2.2842776775360107,
				0.7322750091552734,
				-0.281144380569458
			],
			"type":"VEC3"
		},
		{
			"bufferView":5,
			"componentType":5126,
			"count":202,
			"type":"VEC3"
		},
		{
			"bufferView":6,
			"componentType":5126,
			"count":202,
			"type":"VEC2"
		},
		{
			"bufferView":7,
			"componentType":5123,
			"count":348,
			"type":"SCALAR"
		},
		{
			"bufferView":8,
			"componentType":5126,
			"count":1696,
			"max":[
				-2.5085151195526123,
				3.899869441986084,
				0.6092355251312256
			],
			"min":[
				-3.421560525894165,
				3.1463279724121094,
				-0.6579534411430359
			],
			"type":"VEC3"
		},
		{
			"bufferView":9,
			"componentType":5126,
			"count":1696,
			"type":"VEC3"
		},
		{
			"bufferView":10,
			"componentType":5126,
			"count":1696,
			"type":"VEC2"
		},
		{
			"bufferView":11,
			"componentType":5123,
			"count":2904,
			"type":"SCALAR"
		},
		{
			"bufferView":12,
			"componentType":5126,
			"count":24,
			"max":[
				1,
				1,
				1
			],
			"min":[
				-1,
				-1,
				-1
			],
			"type":"VEC3"
		},
		{
			"bufferView":13,
			"componentType":5126,
			"count":24,
			"type":"VEC3"
		},
		{
			"bufferView":14,
			"componentType":5126,
			"count":24,
			"type":"VEC2"
		},
		{
			"bufferView":15,
			"componentType":5123,
			"count":36,
			"type":"SCALAR"
		}
	],
	"bufferViews":[
		{
			"buffer":0,
			"byteLength":2784,
			"byteOffset":0,
			"target":34962
		},
		{
			"buffer":0,
			"byteLength":2784,
			"byteOffset":2784,
			"target":34962
		},
		{
			"buffer":0,
			"byteLength":1856,
			"byteOffset":5568,
			"target":34962
		},
		{
			"buffer":0,
			"byteLength":696,
			"byteOffset":7424,
			"target":34963
		},
		{
			"buffer":0,
			"byteLength":2424,
			"byteOffset":8120,
			"target":34962
		},
		{
			"buffer":0,
			"byteLength":2424,
			"byteOffset":10544,
			"target":34962
		},
		{
			"buffer":0,
			"byteLength":1616,
			"byteOffset":12968,
			"target":34962
		},
		{
			"buffer":0,
			"byteLength":696,
			"byteOffset":14584,
			"target":34963
		},
		{
			"buffer":0,
			"byteLength":20352,
			"byteOffset":15280,
			"target":34962
		},
		{
			"buffer":0,
			"byteLength":20352,
			"byteOffset":35632,
			"target":34962
		},
		{
			"buffer":0,
			"byteLength":13568,
			"byteOffset":55984,
			"target":34962
		},
		{
			"buffer":0,
			"byteLength":5808,
			"byteOffset":69552,
			"target":34963
		},
		{
			"buffer":0,
			"byteLength":288,
			"byteOffset":75360,
			"target":34962
		},
		{
			"buffer":0,
			"byteLength":288,
			"byteOffset":75648,
			"target":34962
		},
		{
			"buffer":0,
			"byteLength":192,
			"byteOffset":75936,
			"target":34962
		},
		{
			"buffer":0,
			"byteLength":72,
			"byteOffset":76128,
			"target":34963
		}
	],
	"buffers":[
		{
			"byteLength":76200,
			"uri":"bath-01.bin"
		}
	]
}
